<svg xmlns="http://www.w3.org/2000/svg" viewBox="0 0 280.4 300"><defs><style>.cls-1{fill:#d9e1ea;}</style></defs><g id="Layer_2" data-name="Layer 2"><g id="Layer_1-2" data-name="Layer 1"><path id="attachment_icon" data-name="attachment icon" class="cls-1" d="M276.67,110.82c-8.31-8.31-16.54,0-16.54,0L121.06,249.88c-21.7,21.72-44.89,30.67-65.19,25.23-15-4-26.47-15.82-30.69-31.56-5.77-21.5,2.74-45.63,23.32-66.22L194.39,31.43c13.75-13.74,31.82-8.21,42.79,2.76,5.87,5.87,9.42,13,10,20,.63,7.66-2.3,14.82-8.75,21.27L91.3,222.6c-8.62,8.61-16.72,9.83-20,6.59s-1.8-11.1,6.82-19.73l95-95a11.69,11.69,0,0,0-16.54-16.53l-95,95c-19.56,19.57-18.24,41.38-6.81,52.8s33.45,13,53-6.59L255,92c11.38-11.37,16.75-25.11,15.53-39.74-1-12.54-7-24.83-16.77-34.61C234.66-1.4,201.6-8.85,177.86,14.9L32,160.79C5.31,187.43-5.39,219.8,2.58,249.6,9,273.51,26.65,291.49,49.82,297.7A68,68,0,0,0,67.46,300c23.49,0,48.25-11.68,70.15-33.58L276.67,127.36S285.07,119.21,276.67,110.82Z"/></g></g></svg>