<svg xmlns="http://www.w3.org/2000/svg" viewBox="0 0 795.85 755.87"><defs><style>.cls-1{fill:#fff;fill-rule:evenodd;}</style></defs><g id="Layer_2" data-name="Layer 2"><g id="Layer_1-2" data-name="Layer 1"><g id="Layer_2-2" data-name="Layer 2"><g id="Layer_1-2-2" data-name="Layer 1-2"><path class="cls-1" d="M531,437.14,795.85,681.65l-68.4,74.22L464,515.73a314,314,0,0,0,39.29-36.39A228.86,228.86,0,0,0,531,437.14ZM71.06,90.75C172.33-21.78,345.66-30.91,458.19,70.37S579.85,345,478.57,457.51a270.72,270.72,0,0,1-321.65,67A318.63,318.63,0,0,1,90,479.34,278,278,0,0,1,20.12,170.8,248.76,248.76,0,0,1,71.06,90.75Zm52.39,55.3c76.84-82.21,205.78-86.56,288-9.71s86.56,205.78,9.72,288c-75.62,80.91-202,86.59-284.61,12.81-83.92-75-91.17-203.79-16.19-287.71Q121.89,147.74,123.45,146.05Z"/></g></g></g></g></svg>