<svg xmlns="http://www.w3.org/2000/svg" viewBox="0 0 232.72 232.72"><defs><style>.cls-1{fill:#192e3f;}.cls-2{fill:#fff;}</style></defs><g id="Layer_2" data-name="Layer 2"><g id="Layer_1-2" data-name="Layer 1"><circle class="cls-1" cx="116.36" cy="116.36" r="116.36"/><g id="Logo_Kinaffaires" data-name="Logo Kinaffaires"><g id="Layer_2-2" data-name="Layer 2"><g id="Layer_9" data-name="Layer 9"><path class="cls-2" d="M29.46,86.5c.4-2.29,4.41-.86,3.51,1L22.43,122.26c5.41-10.22,32.69-22.52,9-4.53,18,11.54,41.51,1.08,57.53-4-9.54,14.45-45.21,16.38-60.21,6.5a52.73,52.73,0,0,0-9.54,12.92c-.5,1.38-4,.35-3.05-1.27Z"/><path class="cls-2" d="M85.76,114.09c.48-1.76,3.87-.59,3.41,1-3.62,25.94,45.09,0,55.1-1.83,1.68,6.19-18.41,10.39-23.5,12.66C108.79,129.42,79.77,136.13,85.76,114.09Z"/><path class="cls-2" d="M141.82,114.42c.17-2.2,3.91-1.34,3.42.49L144,121c38.8-28.64,3.1,24.85,70.53-7.89,1.72-.79,3.17,2,1.51,2.95-63.65,30.35-42.32-9.47-61.6,1.91C145.43,122.23,135.52,138.56,141.82,114.42Z"/></g></g></g></g></g></svg>