<svg xmlns="http://www.w3.org/2000/svg" viewBox="0 0 232.72 232.72"><defs><style>.cls-1{fill:#192e3f;}.cls-2{fill:#fff;}</style></defs><g id="Layer_2" data-name="Layer 2"><g id="Layer_1-2" data-name="Layer 1"><circle class="cls-1" cx="116.36" cy="116.36" r="116.36"/><g id="Logo_Kinaffaires" data-name="Logo Kinaffaires"><g id="Layer_2-2" data-name="Layer 2"><g id="Layer_9" data-name="Layer 9"><path class="cls-2" d="M32.46,88.15c.4-2.3,4.41-.86,3.51,1L25.43,123.91c5.41-10.22,32.69-22.52,9-4.54,18,11.55,41.51,1.09,57.53-4-9.54,14.45-45.21,16.38-60.21,6.5a52.68,52.68,0,0,0-9.54,12.91c-.5,1.39-4,.35-3.05-1.26Z"/><path class="cls-2" d="M88.76,115.74c.48-1.76,3.87-.59,3.41,1-3.62,25.94,45.09,0,55.1-1.84,1.68,6.19-18.41,10.39-23.5,12.67C111.79,131.07,82.77,137.78,88.76,115.74Z"/><path class="cls-2" d="M144.82,116.06c.17-2.19,3.91-1.34,3.42.49L147,122.68c38.8-28.63,3.1,24.85,70.53-7.89,1.72-.78,3.17,2,1.51,3-63.65,30.34-42.32-9.48-61.6,1.91C148.43,123.87,138.52,140.21,144.82,116.06Z"/></g></g></g></g></g></svg>