<svg xmlns="http://www.w3.org/2000/svg" viewBox="0 0 327.9 59.17"><defs><style>.cls-1{fill:#fff;}</style></defs><g id="Layer_2" data-name="Layer 2"><g id="Layer_1-2" data-name="Layer 1"><g id="Layer_2-2" data-name="Layer 2"><g id="Layer_9" data-name="Layer 9"><path class="cls-1" d="M6.61,7.53c.19-1.12,2.16-.42,1.72.5L3.17,25c2.65-5,16-11,4.38-2.22,8.81,5.65,20.31.53,28.15-2C31,27.92,13.58,28.87,6.24,24a25.81,25.81,0,0,0-4.67,6.32c-.25.68-1.94.17-1.49-.62Z"/><path class="cls-1" d="M34.16,21c.23-.86,1.89-.29,1.67.49-1.78,12.69,22.05,0,27-.9.83,3-9,5.09-11.49,6.2C45.42,28.53,31.23,31.82,34.16,21Z"/><path class="cls-1" d="M61.59,21.19c.08-1.07,1.91-.66,1.67.24l-.61,3c19-14,1.51,12.16,34.51-3.86.84-.39,1.55,1,.73,1.44-31.14,14.85-20.7-4.63-30.13.94C63.35,25,58.5,33,61.59,21.19Z"/><path class="cls-1" d="M106.24,21.19c-.25.8-1.7.77-1.74-.13a2.07,2.07,0,0,0-.12-1.23c-2.51-2.07-7.21,2.23-7.62,4.92,2,1.52,4.61-3.05,6.79-3.2,6.26,6.14,15.41,3.07,22-1,7,1-17,11-22.42,2.93-3.17,4.09-10.51,4.88-7.32-1.17C97.68,18.65,106.31,14.23,106.24,21.19Z"/><path class="cls-1" d="M143,4.09c-1.28,8.51-9.38,15.51-17.46,17.59,0,.21-.15,0-.12.24,8.45,2,17.65,2.18,25.83-1.14.65-.25,1.06-.08,1.23.49-6.17,5.88-19.2,3.73-27.47,2.41-1.53,2.35-2.3,24.9-5.17,20.41.89-18.26-13-29.52,4-22.54C126.12,13.45,128.81.83,139,0A3.76,3.76,0,0,1,143,4.09ZM121.12,36.31c.71-4.31,1.27-8.64,2.23-13a55.55,55.55,0,0,1-6.27-2A72.6,72.6,0,0,1,121.12,36.31ZM139,1.75c-8.51.67-10.93,11.15-12.93,18C131,19.41,147.31,4.69,139,1.75Z"/><path class="cls-1" d="M169,4.09c-1.29,8.51-9.39,15.51-17.47,17.59,0,.21-.15,0-.12.24,8.45,2,17.65,2.18,25.83-1.14.65-.25,1.06-.08,1.23.49C172.55,27.11,159,25,151,23.68c-1.54,2.35-2.29,24.92-5.17,20.41,1.17-17.54-13.09-29.68,4-22.54,2.29-8.09,5-20.71,15.13-21.52A3.69,3.69,0,0,1,169,4.09ZM147,36.31c.72-4.31,1.26-8.64,2.23-13a53.76,53.76,0,0,1-6.28-2A73.26,73.26,0,0,1,147,36.31ZM164.91,1.75c-8.5.68-10.94,11.14-12.88,18C156.94,19.42,173.28,4.66,164.91,1.75Z"/><path class="cls-1" d="M186.68,21.19c-.25.8-1.7.77-1.74-.13a2.07,2.07,0,0,0-.12-1.23c-2.51-2.07-7.21,2.23-7.62,4.92,2,1.51,4.61-3.05,6.79-3.2,6.26,6.14,15.41,3.07,22-1,7,1-17,11-22.39,2.95-3.16,4.09-10.53,4.87-7.31-1.17C178.13,18.69,186.82,14.24,186.68,21.19Z"/><path class="cls-1" d="M205.74,21c.24-.86,1.9-.28,1.67.49-1.78,12.67,22.05,0,27-.9C234.77,25.37,200.07,35.62,205.74,21Z"/><path class="cls-1" d="M268.84,20.57c8.24,2.05-40.76,19.51-31.36,1.31-2.58,1.14-8.56-2.37-5.29-4.67,1.47-.08.51,2.61,2.33,2.83,1.61,1,3.84-.89,5,.3.25,2.2-3.06,5.48-.35,7.44C249,30,260.3,25.45,268.84,20.57Z"/><path class="cls-1" d="M274.48,14.17c3.79,2.59-7.59,1.35-7.38,4.88-.21,2.09,3,1.33,3.27,2.84-8.49,4,5.6,3.34,9.37,2.63,6.56-1.18,13.64-2.65,19.37-6.33a.78.78,0,0,1,1.11.25c1.36,5.69-43.14,13.34-32.48,3.44C261.25,18.69,270.48,13.41,274.48,14.17Z"/><path class="cls-1" d="M299.55,20.33c-1-4.79,8.55,4.09,9.22,5.76,24.09-11,26.58-7.92.86,1.47,2.38,11.79-16.44,6.51-2.31-.84A21.8,21.8,0,0,0,299.55,20.33Zm8.73,9.1a4.15,4.15,0,0,0-.12-1.11C299.09,32.19,306.81,35.93,308.28,29.43Z"/><path class="cls-1" d="M196.17,58.81h-3.45l-1.57-7.88c-.77.7-.42,6.91-.48,7.88h-3.32V39.56h3.32v5.68l2-5.68h3.17l-2.65,7Z"/><path class="cls-1" d="M201.92,58.76H198.6V39.56h3.32Z"/><path class="cls-1" d="M213,58.81h-2.45l-2.48-9.88v9.88h-2.75V39.56h2.8l2.13,8.53V39.56H213Z"/><path class="cls-1" d="M229,58.76h-3.35l-.25-2.68h-2l-.25,2.68h-2.77l2.47-19.2h3.58Zm-3.93-5.35-.6-7.65-.77,7.65Z"/><path class="cls-1" d="M238.7,42.21h-3.4V48h2.82v2.62H235.3v8.23H232V39.56h6.73Z"/><path class="cls-1" d="M248.47,42.21H245V48h2.83v2.62H245v8.23h-3.32V39.56h6.72Z"/><path class="cls-1" d="M258.82,58.76h-3.35l-.25-2.68h-2L253,58.76h-2.78l2.48-19.2h3.57Zm-3.92-5.35-.6-7.65-.78,7.65Z"/><path class="cls-1" d="M265,58.76h-3.32V39.56H265Z"/><path class="cls-1" d="M273.5,58.81c-.87-2,.6-8.4-1.65-7.85v7.85h-3.33V39.56h4.15c4.59-.88,5.54,8.4,2.2,9.92,2.8,2.45.91,6.24,1.93,9.28Zm-1.2-16.6h-.45v6.08C274,49.42,274.08,41.64,272.3,42.21Z"/><path class="cls-1" d="M286.62,58.76h-6.75V39.56h6.73v2.65h-3.4v5.33H286v2.69h-2.82v5.88h3.42Z"/><path class="cls-1" d="M297,54.66c-.71,8-9.8,4.29-7.4-2.65l2.5.3c-.17,1.08-.51,4.37.7,4.17.77.15.9-1.15.85-2.12.35-3.26-4.82-6.58-4.28-10.42,0-7.79,9.57-5.29,7.23,2l-2.53-.3c.18-1,.33-4.13-.65-3.87-.53,0-.72.37-.72,1.5C292.91,47.49,297.61,50.1,297,54.66Z"/></g></g></g></g></svg>