<svg xmlns="http://www.w3.org/2000/svg" viewBox="0 0 5.47 5.19"><defs><style>.cls-1{fill:#fff;fill-rule:evenodd;}</style></defs><g id="Layer_2" data-name="Layer 2"><g id="Layer_1-2" data-name="Layer 1"><path class="cls-1" d="M3.65,3,5.47,4.68,5,5.19,3.19,3.54a2.16,2.16,0,0,0,.27-.25A1.57,1.57,0,0,0,3.65,3ZM.49.62a1.88,1.88,0,0,1,2.8,2.52,1.86,1.86,0,0,1-2.21.46,2.19,2.19,0,0,1-.46-.31A1.91,1.91,0,0,1,.14,1.17,1.71,1.71,0,0,1,.49.62ZM.85,1a1.4,1.4,0,1,1,.09,2A1.4,1.4,0,0,1,.85,1Z"/></g></g></svg>